<svg width="15" height="15" viewBox="0 0 15 15" fill="none" xmlns="http://www.w3.org/2000/svg">
<path d="M15 7.52002V0L12.7197 2.2658V12.9036C13.86 11.7614 14.6525 10.0337 15 7.52002Z" fill="#FFA8C5"/>
<path d="M3.59838 5.53793H0.0150146L4.73855 10.2615L6.47594 8.46978L3.59838 5.53793Z" fill="#FF67B8"/>
<path d="M0.0150113 5.53794C-0.206346 10.6471 2.02387 14.6592 6.47594 14.8221C9.02814 14.9155 11.1878 14.4379 12.7197 12.9036V2.26581L6.47594 8.46979L4.73855 10.2615L0.0150113 5.53794Z" fill="white"/>
<path d="M0.0150113 5.53794C-0.206346 10.6471 2.02387 14.6592 6.47594 14.8221C9.02814 14.9155 11.1878 14.4379 12.7197 12.9036V2.26581L6.47594 8.46979L4.73855 10.2615L0.0150113 5.53794Z" fill="url(#paint0_linear_92_17)"/>
<defs>
<linearGradient id="paint0_linear_92_17" x1="1.20947" y1="9.33848" x2="12.9369" y2="12.2703" gradientUnits="userSpaceOnUse">
<stop stop-color="#FC359F"/>
<stop offset="1" stop-color="white" stop-opacity="0"/>
</linearGradient>
</defs>
</svg>
