<svg width="17" height="18" viewBox="0 0 17 18" fill="none" xmlns="http://www.w3.org/2000/svg">
<path d="M16.2339 8.96901V1.25L13.88 3.57575V14.495C15.0571 13.3226 15.8752 11.5492 16.2339 8.96901Z" fill="#A8C6FF"/>
<path d="M4.46446 6.93448H0.765499L5.64141 11.783L7.43484 9.94391L4.46446 6.93448Z" fill="#6392FF"/>
<path d="M0.765496 6.93449C0.536998 12.1788 2.83916 16.2971 7.43484 16.4643C10.0694 16.5602 12.2987 16.0699 13.88 14.495V3.57578L7.43484 9.94392L5.64141 11.783L0.765496 6.93449Z" fill="white"/>
<path d="M0.765496 6.93449C0.536998 12.1788 2.83916 16.2971 7.43484 16.4643C10.0694 16.5602 12.2987 16.0699 13.88 14.495V3.57578L7.43484 9.94392L5.64141 11.783L0.765496 6.93449Z" fill="url(#paint0_linear_95_36)"/>
<path d="M13.88 3.57575L16.2339 1.25V8.969C15.8752 11.5492 15.0571 13.3226 13.88 14.495" stroke="black" stroke-width="0.2"/>
<path d="M0.765499 6.93448H4.46446L7.43484 9.94391" stroke="black" stroke-width="0.2"/>
<path d="M0.765496 6.93449C0.536998 12.1788 2.83916 16.2971 7.43484 16.4643C10.0694 16.5602 12.2987 16.0699 13.88 14.495M13.88 3.57578L7.43484 9.94392" stroke="black" stroke-width="0.2"/>
<defs>
<linearGradient id="paint0_linear_95_36" x1="1.99849" y1="10.8356" x2="14.0962" y2="13.8771" gradientUnits="userSpaceOnUse">
<stop stop-color="#3B82F6"/>
<stop offset="1" stop-color="white" stop-opacity="0.15"/>
</linearGradient>
</defs>
</svg>
