<svg width="15" height="15" viewBox="0 0 15 15" fill="none" xmlns="http://www.w3.org/2000/svg">
<path d="M5.12395 10V11.25C5.12395 11.5815 5.25122 11.8995 5.47776 12.1339C5.7043 12.3683 6.01156 12.5 6.33193 12.5L10.5599 12.5C10.8803 12.5 11.1875 12.3683 11.414 12.1339C11.6406 11.8995 11.7679 11.5815 11.7679 11.25L11.7679 3.75C11.7679 3.41848 11.6406 3.10054 11.414 2.86612C11.1875 2.6317 10.8803 2.5 10.5599 2.5L6.33193 2.5C6.01156 2.5 5.7043 2.6317 5.47776 2.86612C5.25122 3.10054 5.12395 3.41848 5.12395 3.75V5M8.7479 7.5L1.5 7.5M1.5 7.5L3.31197 9.375M1.5 7.5L3.31197 5.625" stroke="#FF0000" stroke-linecap="round" stroke-linejoin="round"/>
</svg>
