<svg width="15" height="15" viewBox="0 0 15 15" fill="none" xmlns="http://www.w3.org/2000/svg">
<path d="M2 3.61764H13M6.125 10.6764V6.44117M8.875 10.6764V6.44117M10.25 13.5H4.75C3.9906 13.5 3.375 12.8679 3.375 12.0883V4.32353C3.375 3.93369 3.6828 3.61764 4.0625 3.61764H10.9375C11.3172 3.61764 11.625 3.93369 11.625 4.32353V12.0883C11.625 12.8679 11.0094 13.5 10.25 13.5ZM6.125 3.61764H8.875C9.2547 3.61764 9.5625 3.30161 9.5625 2.91177V2.20588C9.5625 1.81603 9.2547 1.5 8.875 1.5H6.125C5.7453 1.5 5.4375 1.81603 5.4375 2.20588V2.91177C5.4375 3.30161 5.7453 3.61764 6.125 3.61764Z" stroke="#FF0000" stroke-linecap="round" stroke-linejoin="round"/>
</svg>
