<svg width="15" height="15" viewBox="0 0 15 15" fill="none" xmlns="http://www.w3.org/2000/svg">
<path d="M2.56598 11.3171L2.16908 11.013L2.16907 11.013L2.56598 11.3171ZM3.29285 9.27359L2.79285 9.26741V9.27359H3.29285ZM3.3081 8.03805L3.8081 8.04422V8.03805H3.3081ZM12.4379 11.327L12.8408 11.031L12.8408 11.031L12.4379 11.327ZM11.7384 9.27359L11.2384 9.26709V9.27359H11.7384ZM11.7536 8.09927L12.2536 8.10577V8.09927H11.7536ZM2.56598 11.3171L2.96289 11.6212C3.37744 11.0801 3.79285 10.2678 3.79285 9.27359H3.29285H2.79285C2.79285 9.98472 2.49426 10.5886 2.16908 11.013L2.56598 11.3171ZM3.29285 9.27359L3.79281 9.27976L3.80806 8.04422L3.3081 8.03805L2.80814 8.03187L2.79288 9.26741L3.29285 9.27359ZM12.4379 11.327L12.8408 11.031C12.5295 10.6072 12.2384 9.9967 12.2384 9.27359H11.7384H11.2384C11.2384 10.2675 11.6367 11.081 12.035 11.6231L12.4379 11.327ZM11.7384 9.27359L12.2383 9.28008L12.2536 8.10577L11.7536 8.09927L11.2537 8.09278L11.2384 9.26709L11.7384 9.27359ZM11.7536 8.09927H12.2536C12.2536 5.48977 10.1214 3.38158 7.5 3.38158V3.88158V4.38158C9.57709 4.38158 11.2536 6.05004 11.2536 8.09927H11.7536ZM12.1833 11.8997V12.3997C12.5724 12.3997 12.8223 12.1284 12.9251 11.8888C13.0273 11.6508 13.0468 11.3114 12.8408 11.031L12.4379 11.327L12.035 11.6231C12.0083 11.5868 12.0013 11.5525 12.0002 11.5332C11.9992 11.5152 12.0024 11.5031 12.0062 11.4943C12.0099 11.4859 12.0202 11.4661 12.0473 11.4449C12.0777 11.4213 12.1259 11.3997 12.1833 11.3997V11.8997ZM3.3081 8.03805H3.8081C3.8081 6.02263 5.45701 4.38158 7.5 4.38158V3.88158V3.38158C4.91275 3.38158 2.8081 5.46236 2.8081 8.03805H3.3081ZM2.81727 11.8997V11.3997C2.87613 11.3997 2.92492 11.4222 2.95513 11.4461C2.98192 11.4674 2.99155 11.4868 2.99463 11.4942C2.99787 11.502 3.00096 11.5132 2.99973 11.5308C2.99841 11.5496 2.99096 11.5846 2.96289 11.6212L2.56598 11.3171L2.16907 11.013C1.95408 11.2937 1.97151 11.6386 2.07145 11.8786C2.17194 12.12 2.42174 12.3997 2.81727 12.3997V11.8997ZM12.1833 11.8997V11.3997H2.81727V11.8997V12.3997H12.1833V11.8997ZM9.5 11.8997H9C9 12.6095 8.36576 13.25 7.5 13.25V13.75V14.25C8.84338 14.25 10 13.2336 10 11.8997H9.5ZM7.5 13.75V13.25C6.63424 13.25 6 12.6095 6 11.8997H5.5H5C5 13.2336 6.15662 14.25 7.5 14.25V13.75ZM8.83333 2.56579H8.33333C8.33333 3.01011 7.9665 3.38158 7.5 3.38158V3.88158V4.38158C8.50626 4.38158 9.33333 3.57485 9.33333 2.56579H8.83333ZM7.5 3.88158V3.38158C7.0335 3.38158 6.66667 3.01011 6.66667 2.56579H6.16667H5.66667C5.66667 3.57485 6.49374 4.38158 7.5 4.38158V3.88158ZM6.16667 2.56579H6.66667C6.66667 2.12146 7.0335 1.75 7.5 1.75V1.25V0.75C6.49374 0.75 5.66667 1.55673 5.66667 2.56579H6.16667ZM7.5 1.25V1.75C7.9665 1.75 8.33333 2.12146 8.33333 2.56579H8.83333H9.33333C9.33333 1.55673 8.50626 0.75 7.5 0.75V1.25Z" fill="white"/>
</svg>
