<svg width="15" height="15" viewBox="0 0 15 15" fill="none" xmlns="http://www.w3.org/2000/svg">
<path d="M9.59189 9.47434C9.85386 9.56166 10.137 9.42008 10.2243 9.15811C10.3117 8.89614 10.1701 8.61298 9.90811 8.52566L9.59189 9.47434ZM7.5 8.25H7C7 8.46521 7.13772 8.65628 7.34189 8.72434L7.5 8.25ZM8 5.11391C8 4.83777 7.77614 4.61391 7.5 4.61391C7.22386 4.61391 7 4.83777 7 5.11391H8ZM9.75 9L9.90811 8.52566L7.65811 7.77566L7.5 8.25L7.34189 8.72434L9.59189 9.47434L9.75 9ZM7.5 8.25H8V5.11391H7.5H7V8.25H7.5ZM13.5 7.5H13C13 10.5376 10.5376 13 7.5 13V13.5V14C11.0899 14 14 11.0898 14 7.5H13.5ZM7.5 13.5V13C4.46243 13 2 10.5376 2 7.5H1.5H1C1 11.0898 3.91015 14 7.5 14V13.5ZM1.5 7.5H2C2 4.46243 4.46243 2 7.5 2V1.5V1C3.91015 1 1 3.91015 1 7.5H1.5ZM7.5 1.5V2C10.5376 2 13 4.46243 13 7.5H13.5H14C14 3.91015 11.0899 1 7.5 1V1.5Z" fill="white"/>
</svg>
