<svg width="15" height="15" viewBox="0 0 15 15" fill="none" xmlns="http://www.w3.org/2000/svg">
<path d="M4.5 7.5C4.5 8.32843 3.82843 9 3 9C2.17157 9 1.5 8.32843 1.5 7.5C1.5 6.67157 2.17157 6 3 6C3.82843 6 4.5 6.67157 4.5 7.5Z" stroke="white" stroke-opacity="0.65"/>
<path d="M9 7.5C9 8.32843 8.32843 9 7.5 9C6.67157 9 6 8.32843 6 7.5C6 6.67157 6.67157 6 7.5 6C8.32843 6 9 6.67157 9 7.5Z" stroke="white" stroke-opacity="0.65"/>
<path d="M13.5 7.5C13.5 8.32843 12.8284 9 12 9C11.1716 9 10.5 8.32843 10.5 7.5C10.5 6.67157 11.1716 6 12 6C12.8284 6 13.5 6.67157 13.5 7.5Z" stroke="white" stroke-opacity="0.65"/>
</svg>
