<svg width="15" height="15" viewBox="0 0 15 15" fill="none" xmlns="http://www.w3.org/2000/svg">
<g opacity="0.5">
<path d="M3.86246 14.2188C3.79996 14.2188 3.73121 14.2125 3.67496 14.2063L2.31871 14.0188C1.66871 13.9313 1.08121 13.35 0.981213 12.6875L0.793713 11.3188C0.731213 10.8813 0.918713 10.3125 1.23121 9.99376L3.97496 7.25001C3.53121 5.47501 4.04371 3.60001 5.34996 2.30626C7.37496 0.287513 10.6687 0.281263 12.7 2.30626C13.6812 3.28751 14.2187 4.59376 14.2187 5.98126C14.2187 7.36876 13.6812 8.67501 12.7 9.65626C11.3875 10.9563 9.51871 11.4688 7.75621 11.0188L5.00621 13.7625C4.74371 14.0375 4.27496 14.2188 3.86246 14.2188ZM9.01871 1.72501C7.92496 1.72501 6.83746 2.13751 6.00621 2.96876C4.88121 4.08751 4.47496 5.72501 4.94371 7.25001C4.99371 7.41876 4.94996 7.59376 4.82496 7.71876L1.88746 10.6563C1.78121 10.7625 1.69371 11.0375 1.71246 11.1813L1.89996 12.55C1.93746 12.7875 2.19371 13.0563 2.43121 13.0875L3.79371 13.275C3.94371 13.3 4.21871 13.2125 4.32496 13.1063L7.27496 10.1625C7.39996 10.0375 7.58121 10 7.74371 10.05C9.24996 10.525 10.8937 10.1188 12.0187 8.99376C12.8187 8.19376 13.2625 7.11876 13.2625 5.98126C13.2625 4.83751 12.8187 3.76876 12.0187 2.96876C11.2062 2.14376 10.1125 1.72501 9.01871 1.72501Z" fill="white"/>
<path d="M5.7438 12.8375C5.62505 12.8375 5.5063 12.7937 5.41255 12.7L3.97505 11.2625C3.7938 11.0812 3.7938 10.7812 3.97505 10.6C4.1563 10.4187 4.4563 10.4187 4.63755 10.6L6.07505 12.0375C6.2563 12.2187 6.2563 12.5187 6.07505 12.7C5.9813 12.7937 5.86255 12.8375 5.7438 12.8375Z" fill="white"/>
<path d="M9.0625 7.34375C8.2875 7.34375 7.65625 6.7125 7.65625 5.9375C7.65625 5.1625 8.2875 4.53125 9.0625 4.53125C9.8375 4.53125 10.4688 5.1625 10.4688 5.9375C10.4688 6.7125 9.8375 7.34375 9.0625 7.34375ZM9.0625 5.46875C8.80625 5.46875 8.59375 5.68125 8.59375 5.9375C8.59375 6.19375 8.80625 6.40625 9.0625 6.40625C9.31875 6.40625 9.53125 6.19375 9.53125 5.9375C9.53125 5.68125 9.31875 5.46875 9.0625 5.46875Z" fill="white"/>
</g>
</svg>
