<svg width="15" height="15" viewBox="0 0 15 15" fill="none" xmlns="http://www.w3.org/2000/svg">
<path d="M7.63909 9.092L6.13818 7.586L6.15591 7.568C7.1573 6.43849 7.90528 5.10171 8.34818 3.65H10.0795V2.45H5.94318V1.25H4.76136V2.45H0.625V3.65H7.22545C6.82955 4.802 6.20318 5.9 5.35227 6.86C4.80273 6.242 4.34773 5.564 3.98727 4.85H2.80545C3.23682 5.828 3.82773 6.752 4.56636 7.586L1.55864 10.598L2.39773 11.45L5.35227 8.45L7.19 10.316L7.63909 9.092ZM10.9659 6.05H9.78409L7.125 13.25H8.30682L8.96864 11.45H11.7755L12.4432 13.25H13.625L10.9659 6.05ZM9.41773 10.25L10.375 7.652L11.3323 10.25H9.41773Z" fill="white"/>
</svg>
