<svg width="15" height="15" viewBox="0 0 15 15" fill="none" xmlns="http://www.w3.org/2000/svg">
<path d="M7.49965 3.86365C7.99392 3.86365 8.46851 4.06005 8.81801 4.40955C9.16734 4.75895 9.36381 5.23285 9.36391 5.72693C9.36391 6.2212 9.16751 6.69579 8.81801 7.04529C8.46851 7.39479 7.99392 7.59119 7.49965 7.59119C7.00557 7.59109 6.53167 7.39462 6.18227 7.04529C5.83277 6.69579 5.63637 6.2212 5.63637 5.72693C5.63646 5.23279 5.83285 4.75896 6.18227 4.40955C6.53168 4.06013 7.00551 3.86374 7.49965 3.86365ZM7.49965 4.04529C7.05373 4.04538 6.62649 4.22313 6.31117 4.53845C5.99585 4.85377 5.8181 5.28101 5.81801 5.72693C5.81801 6.17297 5.99577 6.60098 6.31117 6.91638C6.62648 7.23162 7.05379 7.40945 7.49965 7.40955C7.9457 7.40955 8.3737 7.23178 8.6891 6.91638C9.0045 6.60098 9.18227 6.17297 9.18227 5.72693C9.18217 5.28107 9.00434 4.85376 8.6891 4.53845C8.3737 4.22305 7.9457 4.04529 7.49965 4.04529Z" fill="white" stroke="white"/>
<path d="M7.5 1.5C10.8136 1.5 13.5 4.18637 13.5 7.5C13.5 10.8136 10.8136 13.5 7.5 13.5C4.18637 13.5 1.5 10.8136 1.5 7.5C1.5 4.18637 4.18637 1.5 7.5 1.5ZM7.53809 9.36328C6.79228 9.36276 6.05698 9.54318 5.39551 9.8877C4.73405 10.2323 4.16532 10.7313 3.73828 11.3428L3.47266 11.7236L3.83301 12.0166C4.86867 12.8599 6.16349 13.3191 7.49902 13.3174V13.3184C8.85883 13.3205 10.1766 12.8438 11.2207 11.9727L11.5771 11.6758L11.3066 11.2979C10.8777 10.6989 10.3117 10.2114 9.65625 9.875C9.00083 9.53859 8.2748 9.36266 7.53809 9.36328ZM9.3623 1.98828C8.48708 1.69262 7.55332 1.60956 6.63965 1.74609C5.72613 1.88267 4.85787 2.23491 4.10742 2.77344C3.35698 3.31201 2.74606 4.022 2.32422 4.84375C1.90235 5.66562 1.68176 6.57618 1.68164 7.5C1.68164 8.85064 2.14269 10.0954 2.91504 11.083L3.31445 11.5928L3.70703 11.0781C4.15638 10.4883 4.73583 10.0096 5.40039 9.68066C6.06492 9.35181 6.79664 9.18116 7.53809 9.18164H7.53906C8.2709 9.1808 8.99356 9.34723 9.65137 9.66797C10.309 9.98868 10.885 10.4552 11.335 11.0322L11.7334 11.5439L12.127 11.0283C12.6869 10.2938 13.0636 9.43645 13.2266 8.52734C13.3895 7.61801 13.3337 6.68225 13.0635 5.79883C12.7933 4.91553 12.3165 4.10884 11.6729 3.44629C11.0292 2.78388 10.2373 2.28389 9.3623 1.98828Z" fill="white" stroke="white"/>
</svg>
