<svg width="20" height="20" viewBox="0 0 20 20" fill="none" xmlns="http://www.w3.org/2000/svg">
<path d="M10 13.125C8.275 13.125 6.875 11.725 6.875 10C6.875 8.275 8.275 6.875 10 6.875C11.725 6.875 13.125 8.275 13.125 10C13.125 11.725 11.725 13.125 10 13.125ZM10 8.125C8.96667 8.125 8.125 8.96667 8.125 10C8.125 11.0333 8.96667 11.875 10 11.875C11.0333 11.875 11.875 11.0333 11.875 10C11.875 8.96667 11.0333 8.125 10 8.125Z" fill="white"/>
<path d="M12.6751 18.4916C12.5001 18.4916 12.3251 18.4666 12.1501 18.425C11.6334 18.2833 11.2001 17.9583 10.9251 17.5L10.8251 17.3333C10.3334 16.4833 9.65841 16.4833 9.16675 17.3333L9.07508 17.4916C8.80008 17.9583 8.36675 18.2916 7.85008 18.425C7.32508 18.5666 6.78342 18.4916 6.32508 18.2166L4.89175 17.3916C4.38341 17.1 4.01675 16.625 3.85841 16.05C3.70842 15.475 3.78341 14.8833 4.07508 14.375C4.31675 13.95 4.38341 13.5666 4.24175 13.325C4.10008 13.0833 3.74175 12.9416 3.25008 12.9416C2.03341 12.9416 1.04175 11.95 1.04175 10.7333V9.26662C1.04175 8.04995 2.03341 7.05829 3.25008 7.05829C3.74175 7.05829 4.10008 6.91662 4.24175 6.67495C4.38341 6.43329 4.32508 6.04995 4.07508 5.62495C3.78341 5.11662 3.70842 4.51662 3.85841 3.94995C4.00841 3.37495 4.37508 2.89995 4.89175 2.60829L6.33342 1.78329C7.27508 1.22495 8.51675 1.54995 9.08342 2.50829L9.18342 2.67495C9.67508 3.52495 10.3501 3.52495 10.8417 2.67495L10.9334 2.51662C11.5001 1.54995 12.7417 1.22495 13.6917 1.79162L15.1251 2.61662C15.6334 2.90829 16.0001 3.38329 16.1584 3.95829C16.3084 4.53329 16.2334 5.12495 15.9417 5.63329C15.7001 6.05829 15.6334 6.44162 15.7751 6.68329C15.9167 6.92495 16.2751 7.06662 16.7667 7.06662C17.9834 7.06662 18.9751 8.05829 18.9751 9.27495V10.7416C18.9751 11.9583 17.9834 12.95 16.7667 12.95C16.2751 12.95 15.9167 13.0916 15.7751 13.3333C15.6334 13.575 15.6917 13.9583 15.9417 14.3833C16.2334 14.8916 16.3167 15.4916 16.1584 16.0583C16.0084 16.6333 15.6417 17.1083 15.1251 17.4L13.6834 18.225C13.3667 18.4 13.0251 18.4916 12.6751 18.4916ZM10.0001 15.4083C10.7417 15.4083 11.4334 15.875 11.9084 16.7L12.0001 16.8583C12.1001 17.0333 12.2667 17.1583 12.4667 17.2083C12.6667 17.2583 12.8667 17.2333 13.0334 17.1333L14.4751 16.3C14.6917 16.175 14.8584 15.9666 14.9251 15.7166C14.9917 15.4666 14.9584 15.2083 14.8334 14.9916C14.3584 14.175 14.3001 13.3333 14.6667 12.6916C15.0334 12.05 15.7917 11.6833 16.7417 11.6833C17.2751 11.6833 17.7001 11.2583 17.7001 10.725V9.25829C17.7001 8.73329 17.2751 8.29995 16.7417 8.29995C15.7917 8.29995 15.0334 7.93329 14.6667 7.29162C14.3001 6.64995 14.3584 5.80829 14.8334 4.99162C14.9584 4.77495 14.9917 4.51662 14.9251 4.26662C14.8584 4.01662 14.7001 3.81662 14.4834 3.68329L13.0417 2.85829C12.6834 2.64162 12.2084 2.76662 11.9917 3.13329L11.9001 3.29162C11.4251 4.11662 10.7334 4.58329 9.99175 4.58329C9.25008 4.58329 8.55841 4.11662 8.08342 3.29162L7.99175 3.12495C7.78342 2.77495 7.31675 2.64995 6.95842 2.85829L5.51675 3.69162C5.30008 3.81662 5.13341 4.02495 5.06675 4.27495C5.00008 4.52495 5.03341 4.78329 5.15841 4.99995C5.63341 5.81662 5.69175 6.65829 5.32508 7.29995C4.95841 7.94162 4.20008 8.30829 3.25008 8.30829C2.71675 8.30829 2.29175 8.73329 2.29175 9.26662V10.7333C2.29175 11.2583 2.71675 11.6916 3.25008 11.6916C4.20008 11.6916 4.95841 12.0583 5.32508 12.7C5.69175 13.3416 5.63341 14.1833 5.15841 15C5.03341 15.2166 5.00008 15.475 5.06675 15.725C5.13341 15.975 5.29175 16.175 5.50842 16.3083L6.95008 17.1333C7.12508 17.2416 7.33341 17.2666 7.52508 17.2166C7.72508 17.1666 7.89175 17.0333 8.00008 16.8583L8.09175 16.7C8.56675 15.8833 9.25842 15.4083 10.0001 15.4083Z" fill="white"/>
</svg>
