<svg width="15" height="15" viewBox="0 0 15 15" fill="none" xmlns="http://www.w3.org/2000/svg">
<path d="M5.84559 10.125V11.4375C5.84559 11.7856 5.98503 12.1194 6.23324 12.3656C6.48145 12.6117 6.8181 12.75 7.16912 12.75L11.8015 12.75C12.1525 12.75 12.4891 12.6117 12.7373 12.3656C12.9856 12.1194 13.125 11.7856 13.125 11.4375L13.125 3.5625C13.125 3.2144 12.9856 2.88056 12.7373 2.63442C12.4891 2.38828 12.1525 2.25 11.8015 2.25L7.16912 2.25C6.8181 2.25 6.48145 2.38828 6.23324 2.63442C5.98503 2.88056 5.84559 3.2144 5.84559 3.5625V4.875M9.81618 7.5L1.875 7.5M1.875 7.5L3.86029 9.46875M1.875 7.5L3.86029 5.53125" stroke="white" stroke-linecap="round" stroke-linejoin="round"/>
</svg>
