<svg width="15" height="15" viewBox="0 0 15 15" fill="none" xmlns="http://www.w3.org/2000/svg">
<path d="M7.50015 4.0625V4.08154M4.08154 7.50015H4.0625M9.93086 5.06943L9.9174 5.08289M5.08297 9.91733L5.0695 9.93079M5.08297 5.08267L5.0695 5.06921M7.5 13C4.46243 13 2 10.5376 2 7.5C2 4.46243 4.46243 2 7.5 2C10.5376 2 13 4.46243 13 7.5C13 8.42472 12.1456 9.04 11.2208 9.04H10.8619C10.6765 9.04 10.4937 9.08316 10.3279 9.16605C9.73812 9.46094 9.49906 10.1781 9.79395 10.7679C9.87684 10.9337 9.92 11.1165 9.92 11.3019V11.4102C9.92 12.0408 9.56616 12.6379 8.95807 12.8046C8.4937 12.932 8.00479 13 7.5 13Z" stroke="white" stroke-linecap="round" stroke-linejoin="round"/>
</svg>
