<svg width="15" height="15" viewBox="0 0 15 15" fill="none" xmlns="http://www.w3.org/2000/svg">
<path d="M2.56598 11.3171L2.12938 10.9826L2.12938 10.9826L2.56598 11.3171ZM3.29285 9.27359L2.74285 9.2668V9.27359H3.29285ZM3.3081 8.03805L3.8581 8.04484V8.03805H3.3081ZM12.4379 11.327L12.8811 11.0014L12.8811 11.0014L12.4379 11.327ZM11.7384 9.27359L11.1884 9.26644V9.27359H11.7384ZM11.7536 8.09927L12.3036 8.10642V8.09927H11.7536ZM2.56598 11.3171L3.00258 11.6516C3.4216 11.1047 3.84285 10.282 3.84285 9.27359H3.29285H2.74285C2.74285 9.97057 2.4501 10.564 2.12938 10.9826L2.56598 11.3171ZM3.29285 9.27359L3.8428 9.28038L3.85806 8.04484L3.3081 8.03805L2.75814 8.03126L2.74289 9.2668L3.29285 9.27359ZM12.4379 11.327L12.8811 11.0014C12.5741 10.5835 12.2884 9.98316 12.2884 9.27359H11.7384H11.1884C11.1884 10.2811 11.592 11.1047 11.9947 11.6527L12.4379 11.327ZM11.7384 9.27359L12.2883 9.28073L12.3036 8.10642L11.7536 8.09927L11.2037 8.09213L11.1884 9.26644L11.7384 9.27359ZM11.7536 8.09927H12.3036C12.3036 5.46176 10.1486 3.33158 7.5 3.33158V3.88158V4.43158C9.54988 4.43158 11.2036 6.07805 11.2036 8.09927H11.7536ZM12.1833 11.8997V12.4497C12.5983 12.4497 12.8629 12.1604 12.9711 11.9085C13.0784 11.6584 13.1001 11.2994 12.8811 11.0014L12.4379 11.327L11.9947 11.6527C11.929 11.5633 11.9534 11.4905 11.9603 11.4746C11.9679 11.4569 12.0286 11.3497 12.1833 11.3497V11.8997ZM3.3081 8.03805H3.8581C3.8581 6.05064 5.48422 4.43158 7.5 4.43158V3.88158V3.33158C4.88553 3.33158 2.7581 5.43435 2.7581 8.03805H3.3081ZM2.81727 11.8997V11.3497C2.97567 11.3497 3.03484 11.4607 3.04079 11.475C3.04684 11.4896 3.05141 11.5085 3.04961 11.5343C3.04771 11.5614 3.03744 11.6061 3.00258 11.6516L2.56598 11.3171L2.12938 10.9826C1.90086 11.2809 1.92034 11.6458 2.02529 11.8978C2.13085 12.1514 2.39536 12.4497 2.81727 12.4497V11.8997ZM12.1833 11.8997V11.3497H2.81727V11.8997V12.4497H12.1833V11.8997ZM9.5 11.8997H8.95C8.95 12.5783 8.34188 13.2 7.5 13.2V13.75V14.3C8.86726 14.3 10.05 13.2648 10.05 11.8997H9.5ZM7.5 13.75V13.2C6.65813 13.2 6.05 12.5783 6.05 11.8997H5.5H4.95C4.95 13.2648 6.13274 14.3 7.5 14.3V13.75ZM8.83333 2.56579H8.28333C8.28333 2.98188 7.93951 3.33158 7.5 3.33158V3.88158V4.43158C8.53325 4.43158 9.38333 3.60308 9.38333 2.56579H8.83333ZM7.5 3.88158V3.33158C7.06049 3.33158 6.71667 2.98188 6.71667 2.56579H6.16667H5.61667C5.61667 3.60308 6.46675 4.43158 7.5 4.43158V3.88158ZM6.16667 2.56579H6.71667C6.71667 2.1497 7.06049 1.8 7.5 1.8V1.25V0.7C6.46675 0.7 5.61667 1.5285 5.61667 2.56579H6.16667ZM7.5 1.25V1.8C7.93951 1.8 8.28333 2.1497 8.28333 2.56579H8.83333H9.38333C9.38333 1.5285 8.53325 0.7 7.5 0.7V1.25Z" fill="black"/>
</svg>
