<svg width="15" height="15" viewBox="0 0 15 15" fill="none" xmlns="http://www.w3.org/2000/svg">
<path d="M7.49982 4.18182C7.94579 4.18182 8.37389 4.35872 8.68928 4.67401C9.00464 4.98937 9.18142 5.41748 9.18147 5.86346C9.18147 6.30951 9.00468 6.73752 8.68928 7.05292C8.37388 7.36832 7.94587 7.5451 7.49982 7.5451C7.05384 7.54506 6.62573 7.36828 6.31037 7.05292C5.99508 6.73753 5.81818 6.30943 5.81818 5.86346C5.81823 5.41748 5.99501 4.98937 6.31037 4.67401C6.62573 4.35865 7.05384 4.18187 7.49982 4.18182ZM7.49982 4.27264C7.07795 4.27269 6.67314 4.44015 6.37482 4.73846C6.07651 5.03678 5.90905 5.44159 5.909 5.86346C5.909 6.28532 6.07658 6.69013 6.37482 6.98846C6.67314 7.28678 7.07795 7.45424 7.49982 7.45428C7.92176 7.45428 8.32647 7.28682 8.62482 6.98846C8.92318 6.69011 9.09064 6.2854 9.09064 5.86346C9.0906 5.44159 8.92314 5.03678 8.62482 4.73846C8.32649 4.44022 7.92168 4.27264 7.49982 4.27264Z" fill="black" stroke="black"/>
<path d="M7.5 2C10.5375 2 13 4.46251 13 7.5C13 10.5375 10.5375 13 7.5 13C4.46251 13 2 10.5375 2 7.5C2 4.46251 4.46251 2 7.5 2ZM7.53516 9.18164C6.84053 9.18116 6.15612 9.34905 5.54004 9.66992C4.9238 9.9909 4.39391 10.4557 3.99609 11.0254L3.73047 11.4062L4.09082 11.6992C5.05364 12.4832 6.25746 12.9098 7.49902 12.9082V12.9092C8.76325 12.9112 9.98824 12.4681 10.959 11.6582L11.3154 11.3613L11.0449 10.9834C10.6454 10.4256 10.1183 9.97055 9.50781 9.65723C8.89749 9.34406 8.22114 9.18106 7.53516 9.18164ZM9.23145 2.37598C8.41776 2.1011 7.54963 2.02443 6.7002 2.15137C5.85092 2.27835 5.04435 2.60579 4.34668 3.10645C3.64891 3.60717 3.07971 4.26621 2.6875 5.03027C2.29529 5.79435 2.09093 6.64114 2.09082 7.5L2.0957 7.73438C2.14546 8.89939 2.5642 9.97032 3.2373 10.8311L3.63672 11.3408L4.0293 10.8262C4.44049 10.2864 4.97098 9.84881 5.5791 9.54785C6.18722 9.2469 6.85664 9.09038 7.53516 9.09082H7.53613C8.20581 9.09005 8.86681 9.24263 9.46875 9.53613C10.0706 9.82962 10.598 10.2561 11.0098 10.7842L11.4082 11.2959L11.8018 10.7803C12.3224 10.0974 12.6727 9.30027 12.8242 8.45508C12.9757 7.60979 12.9239 6.74016 12.6729 5.91895C12.4217 5.09763 11.9783 4.34749 11.3799 3.73145C10.7815 3.1155 10.045 2.65085 9.23145 2.37598Z" fill="black" stroke="black"/>
</svg>
