<svg width="15" height="15" viewBox="0 0 15 15" fill="none" xmlns="http://www.w3.org/2000/svg">
<g opacity="0.5">
<path d="M6.875 12.9688C3.5125 12.9688 0.78125 10.2375 0.78125 6.875C0.78125 3.5125 3.5125 0.78125 6.875 0.78125C10.2375 0.78125 12.9688 3.5125 12.9688 6.875C12.9688 10.2375 10.2375 12.9688 6.875 12.9688ZM6.875 1.71875C4.03125 1.71875 1.71875 4.03125 1.71875 6.875C1.71875 9.71875 4.03125 12.0312 6.875 12.0312C9.71875 12.0312 12.0312 9.71875 12.0312 6.875C12.0312 4.03125 9.71875 1.71875 6.875 1.71875Z" fill="#0C0C0C"/>
<path d="M12.6002 14.2437C12.5502 14.2437 12.5002 14.2375 12.4564 14.2312C12.1627 14.1937 11.6314 13.9937 11.3314 13.1C11.1752 12.6312 11.2314 12.1625 11.4877 11.8062C11.7439 11.45 12.1752 11.25 12.6689 11.25C13.3064 11.25 13.8064 11.4938 14.0314 11.925C14.2564 12.3562 14.1939 12.9062 13.8377 13.4375C13.3939 14.1062 12.9127 14.2437 12.6002 14.2437ZM12.2252 12.8062C12.3314 13.1312 12.4814 13.2937 12.5814 13.3062C12.6814 13.3187 12.8689 13.2 13.0627 12.9187C13.2439 12.65 13.2564 12.4562 13.2127 12.3687C13.1689 12.2812 12.9939 12.1875 12.6689 12.1875C12.4752 12.1875 12.3314 12.25 12.2502 12.3562C12.1752 12.4625 12.1627 12.625 12.2252 12.8062Z" fill="#0C0C0C"/>
</g>
</svg>
