<svg width="15" height="15" viewBox="0 0 15 15" fill="none" xmlns="http://www.w3.org/2000/svg">
<path d="M7.18439 1.69619C7.31349 1.4346 7.68651 1.4346 7.81561 1.69619L9.48687 5.08252C9.53813 5.1864 9.63723 5.2584 9.75187 5.27506L13.4889 5.81808C13.7776 5.86003 13.8929 6.21479 13.684 6.41841L10.9798 9.0543C10.8969 9.13516 10.859 9.25166 10.8786 9.36583L11.517 13.0878C11.5663 13.3753 11.2645 13.5945 11.0063 13.4588L7.66378 11.7015C7.56125 11.6476 7.43875 11.6476 7.33622 11.7015L3.99371 13.4588C3.73551 13.5945 3.43373 13.3753 3.48304 13.0878L4.1214 9.36583C4.14099 9.25166 4.10313 9.13516 4.02018 9.0543L1.31604 6.41841C1.10714 6.21479 1.22241 5.86003 1.5111 5.81808L5.24813 5.27506C5.36277 5.2584 5.46187 5.1864 5.51313 5.08252L7.18439 1.69619Z" stroke="black" stroke-linejoin="round"/>
</svg>
