<svg width="15" height="15" viewBox="0 0 15 15" fill="none" xmlns="http://www.w3.org/2000/svg">
<path d="M2 4.11764H13M6.125 11.1764V6.94117M8.875 11.1764V6.94117M10.25 14H4.75C3.9906 14 3.375 13.3679 3.375 12.5883V4.82353C3.375 4.43369 3.6828 4.11764 4.0625 4.11764H10.9375C11.3172 4.11764 11.625 4.43369 11.625 4.82353V12.5883C11.625 13.3679 11.0094 14 10.25 14ZM6.125 4.11764H8.875C9.2547 4.11764 9.5625 3.80161 9.5625 3.41177V2.70588C9.5625 2.31603 9.2547 2 8.875 2H6.125C5.7453 2 5.4375 2.31603 5.4375 2.70588V3.41177C5.4375 3.80161 5.7453 4.11764 6.125 4.11764Z" stroke="black" stroke-linecap="round" stroke-linejoin="round"/>
</svg>
