<svg width="15" height="15" viewBox="0 0 15 15" fill="none" xmlns="http://www.w3.org/2000/svg">
<path d="M1.875 13.125L4.76875 10.2306M8 5.08001L8.41688 4.66313C8.8025 4.27688 8.5575 3.41313 8.5325 2.93688C8.49625 2.30188 9.50625 1.5175 10.0419 2.05313L12.9463 4.95813C13.4838 5.49438 12.6963 6.50125 12.0631 6.4675C11.5869 6.4425 10.7225 6.1975 10.3363 6.58313C10.1489 6.77052 9.98689 6.93252 9.83461 7.0848M8.43494 9.13347C8.3684 9.83821 8.46283 10.6834 8.43375 11.1463C8.3825 11.9619 7.10562 12.5619 6.50875 11.965L4.77188 10.2275L3.03438 8.49C2.43813 7.89438 3.03812 6.6175 3.85312 6.56625C4.21554 6.54318 4.81254 6.59613 5.39298 6.58823L6 6.5" stroke="black" stroke-linecap="round" stroke-linejoin="round"/>
<rect x="4" y="3.70709" width="1" height="10.4754" transform="rotate(-45 4 3.70709)" fill="black"/>
</svg>
