<svg width="15" height="15" viewBox="0 0 15 15" fill="none" xmlns="http://www.w3.org/2000/svg">
<g opacity="0.5">
<path d="M7.59961 7.2625C7.58086 7.2625 7.56836 7.2625 7.54961 7.2625C7.51836 7.25625 7.47461 7.25625 7.43711 7.2625C5.62461 7.20625 4.25586 5.78125 4.25586 4.025C4.25586 2.2375 5.71211 0.78125 7.49961 0.78125C9.28711 0.78125 10.7434 2.2375 10.7434 4.025C10.7371 5.78125 9.36211 7.20625 7.61836 7.2625C7.61211 7.2625 7.60586 7.2625 7.59961 7.2625ZM7.49961 1.71875C6.23086 1.71875 5.19336 2.75625 5.19336 4.025C5.19336 5.275 6.16836 6.28125 7.41211 6.325C7.44336 6.31875 7.53086 6.31875 7.61211 6.325C8.83711 6.26875 9.79961 5.2625 9.80586 4.025C9.80586 2.75625 8.76836 1.71875 7.49961 1.71875Z" fill="#0C0C0C"/>
<path d="M7.60625 14.0938C6.38125 14.0938 5.15 13.7812 4.21875 13.1562C3.35 12.5813 2.875 11.7938 2.875 10.9375C2.875 10.0812 3.35 9.2875 4.21875 8.70625C6.09375 7.4625 9.13125 7.4625 10.9937 8.70625C11.8562 9.28125 12.3375 10.0687 12.3375 10.925C12.3375 11.7812 11.8625 12.575 10.9937 13.1562C10.0562 13.7812 8.83125 14.0938 7.60625 14.0938ZM4.7375 9.49375C4.1375 9.89375 3.8125 10.4062 3.8125 10.9438C3.8125 11.475 4.14375 11.9875 4.7375 12.3812C6.29375 13.425 8.91875 13.425 10.475 12.3812C11.075 11.9812 11.4 11.4688 11.4 10.9312C11.4 10.4 11.0687 9.8875 10.475 9.49375C8.91875 8.45625 6.29375 8.45625 4.7375 9.49375Z" fill="#0C0C0C"/>
</g>
</svg>
