<svg width="349" height="61" viewBox="0 0 349 61" fill="none" xmlns="http://www.w3.org/2000/svg">
<path d="M109.612 1.60336L43.9908 1.00226C34.3592 0.914031 25.0833 3.41308 17.149 7.99477C4.60154 15.2403 1.08653 30.7621 1.24821 45.2504V45.2504V51.6887V51.6887C1.24821 56.2789 4.96931 60 9.55952 60H338.558C343.763 60 347.973 55.7631 347.94 50.5583V50.5583C348.303 32.5801 344.146 12.5363 326.604 5.14147C320.078 2.3903 312.896 0.934558 305.506 1.00226L239.884 1.60336C234.905 1.64897 229.992 2.66702 225.459 4.59212C219.251 7.22879 213.98 11.4714 210.271 16.8184L202.453 28.0888C199.897 31.7736 196.546 34.9197 192.615 37.3261L192.07 37.6599C186.922 40.811 180.902 42.4895 174.748 42.4895C168.594 42.4895 162.574 40.811 157.427 37.6599L156.881 37.3261C152.95 34.9197 149.6 31.7736 147.044 28.0888L139.225 16.8184C135.516 11.4714 130.246 7.22879 124.038 4.59212C119.505 2.66702 114.591 1.64897 109.612 1.60336Z" fill="#232323" stroke="#232323"/>
</svg>
