<svg width="351" height="79" viewBox="0 0 351 79" fill="none" xmlns="http://www.w3.org/2000/svg">
<path d="M109.895 1.92532L43.8006 1.27734C36.3565 1.20436 29.1235 2.77362 22.55 5.73933C4.88131 13.7108 0.694675 35.3177 1.06034 54.6979L1.5 77.9999H349.5L349.94 54.6979C350.305 35.3177 346.119 13.7108 328.45 5.73934C321.877 2.77362 314.643 1.20436 307.199 1.27734L241.105 1.92532C236.091 1.97448 231.142 3.07192 226.576 5.14715C220.323 7.98943 215.015 12.5629 211.279 18.3268L203.404 30.4762C200.83 34.4483 197.455 37.8397 193.496 40.4338L192.946 40.7936C187.762 44.1905 181.698 45.9999 175.5 45.9999C169.302 45.9999 163.238 44.1905 158.054 40.7936L157.504 40.4338C153.545 37.8397 150.17 34.4483 147.596 30.4762L139.721 18.3268C135.985 12.5629 130.677 7.98943 124.424 5.14715C119.858 3.07192 114.909 1.97448 109.895 1.92532Z" fill="#F0F1F2"/>
<path d="M1.5 77.9999H1M1.5 77.9999L1.06034 54.6979C0.694675 35.3177 4.88131 13.7108 22.55 5.73933C29.1235 2.77362 36.3565 1.20436 43.8006 1.27734L109.895 1.92532C114.909 1.97448 119.858 3.07192 124.424 5.14715C130.677 7.98943 135.985 12.5629 139.721 18.3268L147.596 30.4762C150.17 34.4483 153.545 37.8397 157.504 40.4338L158.054 40.7936C163.238 44.1905 169.302 45.9999 175.5 45.9999C181.698 45.9999 187.762 44.1905 192.946 40.7936L193.496 40.4338C197.455 37.8397 200.83 34.4483 203.404 30.4762L211.279 18.3268C215.015 12.5629 220.323 7.98943 226.576 5.14715C231.142 3.07192 236.091 1.97448 241.105 1.92532L307.199 1.27734C314.643 1.20436 321.877 2.77362 328.45 5.73934C346.119 13.7108 350.305 35.3177 349.94 54.6979L349.5 77.9999M1.5 77.9999H349.5M349.5 77.9999H350" stroke="#F0F1F2"/>
</svg>
